<?xml version="1.0" encoding="UTF-8"?>
<svg version="1.1" viewBox="0 0 1280 1256" width="1280" height="1280" xmlns="http://www.w3.org/2000/svg">
<path transform="translate(0)" d="m0 0h1280v1256h-1280z" fill="#244755"/>
<path transform="translate(676,17)" d="m0 0 5 1 8 6 20 14 8 4 9 3 17 4 17 5 14 4 10 2 1-4-3-8-1-13 2-6 3-3 3 1 6 9 4 7 14 12 16 9 13 6 16 6 22 10 10 5 4-1 1-20 2-4 4 1 8 14 7 9 9 10 9 8 3 2 2-2-1-11-2-6v-5l4 1 8 9 7 8 9 10 7 8 3 3 4-1 1-1-1-9-2-15v-7l2-1 8 7 14 14 10 8 23 11 5-1-2-4-7-11-7-18-3-10-2-12-1-17 1-2 4 1 6 9 6 11 7 11 5 6 13 13 11 9 15 14 10 10 7 11 6 11 4 12 7 6 11 6 6 7 1 2v13l-2 15v10l3 5 3 3 9 4 2 11 9 9 1 2 1 10 5 4 18 5 17 4 6 4 3 4v20l-5 10-10 10-8 6-6 4-14 14-5 3h-7l-1-5 4-13v-6l-2-2-4 1-5 2-5-1-2-5-2-8-3-6-8-5-7-8-4-6-5-4-4-2h-13l-2 2v7l5 10 14 14 7 9 2 7 1 9 3 3 14-1 4-1 4 2-4 7-8 13-7 7-9 5-4 2-11-20-11-17-10-15-14-19-11-14-9-10-9-11-13-13-7-8-13-12-7-7-11-9-14-12-16-12-17-12-17-11-20-12-22-12-23-11-24-10-24-9-19-6-31-8-24-5-31-5-34-3h-69l-34 3-41 7-26 6-28 8-34 12-26 11-30 15-20 11-19 12-15 10-17 12-12 10-10 8-14 12-12 11-27 27-9 11-10 11-13 17-12 16-10 15-12 19-14 25-13 26-11 26-7 18-10 32-6 22-6 29-5 33-2 19-1 19v55l2 28 4 31 5 27 9 36 8 25 9 25 11 26 8 16 12 23 12 20 11 17 10 14 9 12 11 14 12 14 9 10 7 8 24 24 11 9 12 11 17 13 13 10 13 9 22 14 21 12 23 12 24 11 25 10 30 10 30 8 22 5 31 5 27 3 19 1h55l29-2 30-4 27-5 26-6 23-7 27-9 25-10 32-15 20-11 20-12 21-14 18-13 14-11 13-11 15-13 12-12 6-5 7-8 9-9 9-11 9-10 13-17 12-16 13-20 11-17 6-11 15-29 12-27 11-29 8-26 5-18 7-32 5-32 3-30 1-21v-35l-1-22-5-44-6-32-8-32-7-23-11-30-5-12 3-1 3 5 9 5 13 11 10 11 7 11 9 16h4l8-16 4-1 4 4 5 14 1 8v11l-4 25-1 2-2 12-4 12 1 5 5-5 6-9 5-1 3 2-1 10-5 19-1 13-2 4v23l1 3 3 27 4 1 8-7 11-9 3 1 1 6-6 12-8 15-1 3-2 23-2 19-5 25-5 15 1 5 5-1 21-12 2-1h6l2 6-5 5-6 4-8 10-12 16-7 16-5 12-7 20-2 5v2h30l3 3v7l-16 8-8 6-10 9-8 9-9 12-9 11-5 7 2 4 16 2 7 3-1 7-4 3-15 4-15 8-8 7-8 6-11 12-8 8-1 4 1 1 18-1 1 1v5l-3 3-11 4-30 18-15 13-12 12-8 7-6 7 2 3 10 1 6 4-1 5-7 3-24 4-22 7-19 10-5 4-11 7-7 5-5 3-2 4 6 4 12 5 2 2-1 5-5 2-15 1-27 5-17 5-13 6-9 3-18 7-5 2-2 3 6 5 11 7 1 1v7l-3 2-7-1-6-1h-34l-23 3-31 6-9 2-2 3 12 10 6 4-1 6-2 1-13-1-18-5-24-5-7-1-18-2h-44l-1 2 14 16 8 11 2 3v4l-6-1-20-12-8-6-12-5-20-5-41-6-12-2-7-2h-6l-1 3 5 17-1 5-5 1-8-7-5-4-10-6-18-8-12-5-16-6-22-6-9-2-2 3 8 16v9l-3 3-5-2-6-9-11-12-9-7-14-8-13-7-11-4-9-4-10-4-4 1 2 14 1 3v17l-4 4-4-1-5-10-4-7-7-11-15-16-20-15-11-8-10-7-5-1-2 7-3 13-4 5-4-1-3-6-6-22-8-15-9-11-31-31-3-1-2 2-4 16-6 13-3 5-5 4-4-1-1-8v-30l-4-15-7-18-6-13-9-19-4-5-4 2-11 20-4 4-5 1-4-5 1-5 3-6v-21l-4-22-3-12-10-28-2-5-4-1-9 9-4 5-6 4h-7l-3-2 1-9 5-22 1-8v-30l-4-19-4-24-2-5h-3l-16 17-5 4h-6l-4-3 1-7 5-7 5-13 2-11 2-30v-24l-2-17-4-1-10 9-9 5h-8l-2-3 1-5 12-22 10-21 6-22 2-18 1-24-4-2-14 6-11 4h-7l-3-5 2-4 12-12 8-11 10-16 8-18 6-19 4-16-2-2-6 1-20 8-8 1-4-4 1-4 11-9 10-8 9-11 7-10 11-21 8-16 5-9v-5l-1-1-27-1-5-4-1-5 15-5 13-8 8-8 5-4 9-11 6-7 9-13 10-14-1-5h-9l-4 1h-11l-3-2 1-6 6-4 11-3 12-8 10-8 10-9 12-13 9-11 12-13-1-3-17-4-10-3-4-4 2-4 12-3 17-4 13-5 17-9 21-14 17-12 8-5-2-4-11-6-7-3-6-4-1-1v-7l2-1h12l20 2 21-5 16-6 25-12 19-10 6-4-2-4-10-9-8-6-2-3v-5l3-2 21 1h37l24-6 21-5 7-1 2-4-10-7-13-9-2-4 1-2 4-2h6l12 3 13 2h24l19-2 16-3 33-4 4-4-13-11-14-12-5-7 1-4 9-1 8 3 9 4 25 7 13 3 13 2h76l1-3-8-11-7-16v-5z" fill="#FDFDFD"/>
<path transform="translate(339,465)" d="m0 0h133l15 4 16 8 11 8 6 5 9 11 7 10 8 16 6 16 6 26 4 27 2 40v16l-2 38-4 26-5 21-6 18-8 17-11 16-11 12-11 8-16 8-14 4-10 1h-127l-3-1-1-3v-19l4-4 8-6 5-6 1-3v-278l-6-5-7-3-3-5-1-6v-9l3-7z" fill="#FEFEFE"/>
<path transform="translate(774,465)" d="m0 0h114l2 4v20l-4 4-10 5-5 8v291l14 1 9-2 7-8 5-13 9-30 3-4 7-2h13l6 2 1 2v8l-9 60-3 8-4 2h-152l-5-3-1-4v-11l2-5 9-5 5-6 2-6v-279l-4-5-10-6-2-3-1-5v-13z" fill="#FEFEFE"/>
<path transform="translate(582,520)" d="m0 0h91l1 1v20l-3 3-6 4-2 5v10l5 25 15 69 6 26 2 3 3-8 12-63 10-52v-7l-4-6-7-7-1-4v-18l1-1h47l4 4v19l-8 7-4 8-4 18-10 54-4 20-9 48-9 47-9 46-7 31-6 16-8 13-5 6-12 9-10 5-9 3-14 2h-13l-12-2-10-5-5-5-4-6-2-5-1-10 2-9 4-6 7-5 4-1h12l8 4 4 5 7 14 4 3 9-1 5-5 1-9-6-32-6-27-10-49-12-59-11-53-8-39-5-19-7-8-3-5v-18z" fill="#FEFEFE"/>
<path transform="translate(434,488)" d="m0 0h15l9 4 7 7 4 8 2 8v250l-2 13-4 11-8 8-5 2-18 1-2-2v-308z" fill="#244755"/>
</svg>
